<?xml version="1.0" standalone="no"?>
<!DOCTYPE svg PUBLIC "-//W3C//DTD SVG 20010904//EN"
 "http://www.w3.org/TR/2001/REC-SVG-20010904/DTD/svg10.dtd">
<svg version="1.0" xmlns="http://www.w3.org/2000/svg"
 width="500.000000pt" height="500.000000pt" viewBox="0 0 500.000000 500.000000"
 preserveAspectRatio="xMidYMid meet">

<g transform="translate(0.000000,500.000000) scale(0.100000,-0.100000)"
fill="#000000" stroke="none">
<path d="M1810 2825 l0 -415 85 0 85 0 0 415 0 415 -85 0 -85 0 0 -415z"/>
<path d="M2189 3180 c-11 -25 -29 -45 -53 -57 l-37 -19 35 -12 c25 -9 39 -24
54 -54 l19 -42 7 31 c8 36 29 56 71 70 l30 11 -27 7 c-32 8 -67 44 -76 78 -7
25 -7 25 -23 -13z"/>
<path d="M1295 2909 c-43 -12 -112 -73 -138 -123 -17 -33 -22 -58 -22 -126 0
-99 19 -144 84 -203 82 -74 222 -77 298 -5 l23 21 0 -31 0 -32 85 0 85 0 0
250 0 250 -85 0 c-85 0 -85 0 -85 -26 l0 -25 -27 19 c-58 40 -146 53 -218 31z
m217 -168 c23 -25 28 -41 28 -81 0 -70 -36 -111 -106 -117 -43 -5 -54 -2 -82
22 -54 45 -61 126 -15 178 26 29 53 37 103 33 34 -3 51 -11 72 -35z"/>
<path d="M2535 2909 c-43 -12 -112 -73 -138 -123 -17 -33 -22 -58 -22 -126 0
-99 19 -144 84 -203 82 -74 222 -77 298 -5 l23 21 0 -31 0 -32 85 0 85 0 0
250 0 250 -85 0 c-85 0 -85 0 -85 -26 l0 -25 -27 19 c-58 40 -146 53 -218 31z
m217 -168 c23 -25 28 -41 28 -81 0 -70 -36 -111 -106 -117 -43 -5 -54 -2 -82
22 -54 45 -61 126 -15 178 26 29 53 37 103 33 34 -3 51 -11 72 -35z"/>
<path d="M2120 2660 l0 -250 85 0 85 0 0 250 0 250 -85 0 -85 0 0 -250z"/>
<path d="M1647 2263 c-11 -11 -8 -20 7 -20 8 0 12 6 9 14 -6 15 -7 15 -16 6z"/>
<path d="M1973 2263 c9 -2 23 -2 30 0 6 3 -1 5 -18 5 -16 0 -22 -2 -12 -5z"/>
<path d="M2102 2218 c1 -51 2 -51 5 -10 3 29 8 40 16 35 7 -4 6 0 -2 10 -7 9
-15 17 -17 17 -2 0 -3 -24 -2 -52z"/>
<path d="M2168 2224 c-2 -25 0 -48 4 -50 5 -3 8 18 8 45 0 64 -7 66 -12 5z"/>
<path d="M2280 2255 c-19 -22 -8 -25 13 -3 9 10 13 18 8 18 -5 0 -14 -7 -21
-15z"/>
<path d="M2321 2267 c2 -1 13 -9 24 -17 19 -14 19 -14 6 3 -7 9 -18 17 -24 17
-6 0 -8 -1 -6 -3z"/>
<path d="M1771 2224 c0 -11 3 -14 6 -6 3 7 2 16 -1 19 -3 4 -6 -2 -5 -13z"/>
<path d="M2485 2230 c-4 -6 -11 -8 -16 -5 -5 3 -6 -1 -3 -10 4 -9 7 -15 8 -13
1 2 8 11 15 21 7 9 11 17 8 17 -3 0 -9 -5 -12 -10z"/>
<path d="M2270 2201 c0 -6 4 -13 10 -16 6 -3 7 1 4 9 -7 18 -14 21 -14 7z"/>
<path d="M1818 2173 c7 -3 16 -2 19 1 4 3 -2 6 -13 5 -11 0 -14 -3 -6 -6z"/>
<path d="M1973 2173 c9 -2 23 -2 30 0 6 3 -1 5 -18 5 -16 0 -22 -2 -12 -5z"/>
<path d="M2308 2173 c7 -3 16 -2 19 1 4 3 -2 6 -13 5 -11 0 -14 -3 -6 -6z"/>
</g>
</svg>
