<?xml version="1.0" encoding="UTF-8"?>
<svg xmlns="http://www.w3.org/2000/svg" xmlns:xlink="http://www.w3.org/1999/xlink" width="49px" height="33px" viewBox="0 0 49 33" version="1.1">
<g id="surface1">
<path style=" stroke:none;fill-rule:nonzero;fill:rgb(0%,0%,0%);fill-opacity:1;" d="M 19.03125 14.433594 L 19.03125 24.070312 L 21.003906 24.050781 L 22.96875 24.027344 L 22.96875 4.839844 L 21.003906 4.8125 L 19.03125 4.796875 Z M 19.03125 14.433594 "/>
<path style=" stroke:none;fill-rule:nonzero;fill:rgb(0%,0%,0%);fill-opacity:1;" d="M 27.867188 5.355469 C 27.710938 6.128906 27.335938 6.890625 26.984375 7.160156 C 26.636719 7.429688 26.046875 7.65625 25.363281 7.804688 C 24.90625 7.902344 24.890625 7.917969 25.132812 7.972656 C 27 8.425781 27.433594 8.800781 27.804688 10.28125 L 28.003906 11.09375 L 28.160156 10.457031 C 28.503906 9.015625 28.878906 8.574219 30.011719 8.234375 C 30.425781 8.109375 30.851562 7.972656 30.972656 7.9375 L 31.1875 7.867188 L 30.972656 7.859375 C 30.6875 7.847656 29.683594 7.550781 29.363281 7.386719 C 28.808594 7.089844 28.382812 6.425781 28.203125 5.539062 C 28.039062 4.761719 27.988281 4.734375 27.867188 5.355469 Z M 27.867188 5.355469 "/>
<path style=" stroke:none;fill-rule:nonzero;fill:rgb(0%,0%,0%);fill-opacity:1;" d="M 7.914062 12.339844 C 7.058594 12.53125 6.480469 12.792969 5.839844 13.273438 C 5.078125 13.859375 4.488281 14.589844 4.066406 15.480469 C 3.640625 16.378906 3.460938 17.214844 3.460938 18.304688 C 3.460938 19.464844 3.640625 20.285156 4.101562 21.234375 C 4.542969 22.132812 5.148438 22.859375 5.910156 23.40625 C 7.882812 24.800781 10.710938 24.734375 12.363281 23.234375 L 12.796875 22.839844 L 12.820312 23.433594 L 12.847656 24.027344 L 14.820312 24.050781 L 16.78125 24.070312 L 16.78125 12.558594 L 12.8125 12.558594 L 12.785156 13.039062 L 12.761719 13.515625 L 12.328125 13.203125 C 11.160156 12.347656 9.414062 12.007812 7.914062 12.339844 Z M 11.460938 15.933594 C 13.445312 16.980469 13.269531 20.058594 11.1875 20.808594 C 10.726562 20.964844 9.800781 20.957031 9.292969 20.78125 C 8.6875 20.574219 8.019531 19.882812 7.839844 19.273438 C 7.386719 17.738281 8.019531 16.335938 9.402344 15.820312 C 9.886719 15.636719 11.023438 15.707031 11.460938 15.933594 Z M 11.460938 15.933594 "/>
<path style=" stroke:none;fill-rule:nonzero;fill:rgb(0%,0%,0%);fill-opacity:1;" d="M 36.03125 12.339844 C 35.175781 12.53125 34.597656 12.792969 33.957031 13.273438 C 32.839844 14.128906 31.984375 15.472656 31.707031 16.8125 C 31.542969 17.617188 31.542969 19.046875 31.707031 19.839844 C 31.992188 21.234375 33.03125 22.769531 34.199219 23.546875 C 36.09375 24.792969 38.902344 24.652344 40.480469 23.234375 L 40.910156 22.839844 L 40.964844 24.027344 L 42.9375 24.050781 L 44.898438 24.070312 L 44.898438 12.558594 L 40.917969 12.558594 L 40.917969 13.039062 C 40.917969 13.300781 40.902344 13.515625 40.875 13.515625 C 40.859375 13.515625 40.632812 13.359375 40.382812 13.167969 C 39.328125 12.359375 37.503906 12.007812 36.03125 12.339844 Z M 39.578125 15.933594 C 40.445312 16.394531 40.953125 17.265625 40.953125 18.3125 C 40.953125 19.371094 40.460938 20.234375 39.578125 20.695312 C 39.085938 20.949219 38.054688 21 37.449219 20.800781 C 36.84375 20.589844 36.160156 19.917969 35.960938 19.324219 C 35.796875 18.847656 35.773438 18 35.902344 17.527344 C 36.109375 16.769531 36.734375 16.117188 37.519531 15.820312 C 38.003906 15.636719 39.136719 15.707031 39.578125 15.933594 Z M 39.578125 15.933594 "/>
<path style=" stroke:none;fill-rule:nonzero;fill:rgb(0%,0%,0%);fill-opacity:1;" d="M 26.058594 18.289062 L 26.082031 24.027344 L 28.054688 24.050781 L 30.019531 24.070312 L 30.019531 12.558594 L 26.039062 12.558594 Z M 26.058594 18.289062 "/>
<path style=" stroke:none;fill-rule:nonzero;fill:rgb(0%,0%,0%);fill-opacity:1;" d="M 15.242188 27.097656 C 15.140625 27.289062 14.359375 29.207031 14.359375 29.257812 C 14.359375 29.285156 14.429688 29.300781 14.515625 29.300781 C 14.601562 29.300781 14.707031 29.199219 14.765625 29.039062 C 14.863281 28.789062 14.878906 28.777344 15.425781 28.777344 C 15.960938 28.777344 15.988281 28.789062 16.089844 29.039062 C 16.160156 29.199219 16.265625 29.300781 16.359375 29.300781 C 16.539062 29.300781 16.585938 29.449219 15.890625 27.734375 C 15.589844 26.984375 15.398438 26.800781 15.242188 27.097656 Z M 15.824219 28.402344 C 15.832031 28.484375 15.691406 28.515625 15.398438 28.515625 L 14.964844 28.515625 L 15.148438 28.0625 C 15.242188 27.8125 15.347656 27.566406 15.382812 27.523438 C 15.433594 27.4375 15.8125 28.195312 15.824219 28.402344 Z M 15.824219 28.402344 "/>
<path style=" stroke:none;fill-rule:nonzero;fill:rgb(0%,0%,0%);fill-opacity:1;" d="M 18.46875 27.234375 C 17.804688 27.90625 18.082031 29.101562 18.964844 29.292969 C 19.648438 29.441406 20.304688 29.015625 20.390625 28.359375 L 20.441406 27.996094 L 19.820312 27.996094 C 19.265625 27.996094 19.207031 28.011719 19.207031 28.167969 C 19.207031 28.316406 19.265625 28.34375 19.636719 28.34375 C 20.089844 28.34375 20.164062 28.429688 19.957031 28.699219 C 19.648438 29.109375 19.050781 29.152344 18.679688 28.789062 C 18.140625 28.246094 18.488281 27.210938 19.207031 27.210938 C 19.480469 27.210938 19.984375 27.445312 19.984375 27.574219 C 19.984375 27.609375 20.0625 27.644531 20.15625 27.644531 C 20.40625 27.644531 20.375 27.523438 20.027344 27.21875 C 19.757812 26.984375 19.65625 26.949219 19.238281 26.949219 C 18.808594 26.949219 18.722656 26.984375 18.46875 27.234375 Z M 18.46875 27.234375 "/>
<path style=" stroke:none;fill-rule:nonzero;fill:rgb(0%,0%,0%);fill-opacity:1;" d="M 22.320312 28.125 L 22.320312 29.300781 L 23.011719 29.300781 C 23.566406 29.300781 23.703125 29.277344 23.703125 29.171875 C 23.703125 29.066406 23.582031 29.039062 23.140625 29.039062 L 22.578125 29.039062 L 22.578125 28.253906 L 23.097656 28.253906 C 23.503906 28.253906 23.617188 28.230469 23.617188 28.125 C 23.617188 28.019531 23.503906 27.996094 23.097656 27.996094 L 22.578125 27.996094 L 22.578125 27.210938 L 23.140625 27.210938 C 23.582031 27.210938 23.703125 27.183594 23.703125 27.078125 C 23.703125 26.972656 23.566406 26.949219 23.011719 26.949219 L 22.320312 26.949219 Z M 22.320312 28.125 "/>
<path style=" stroke:none;fill-rule:nonzero;fill:rgb(0%,0%,0%);fill-opacity:1;" d="M 25.605469 28.117188 C 25.605469 29.101562 25.632812 29.300781 25.738281 29.300781 C 25.832031 29.300781 25.867188 29.128906 25.882812 28.402344 L 25.910156 27.515625 L 26.542969 28.402344 C 26.894531 28.902344 27.234375 29.300781 27.304688 29.300781 C 27.398438 29.300781 27.425781 29.074219 27.425781 28.125 C 27.425781 27.148438 27.398438 26.949219 27.292969 26.949219 C 27.199219 26.949219 27.164062 27.121094 27.148438 27.835938 L 27.121094 28.726562 L 26.515625 27.863281 C 25.660156 26.632812 25.605469 26.652344 25.605469 28.117188 Z M 25.605469 28.117188 "/>
<path style=" stroke:none;fill-rule:nonzero;fill:rgb(0%,0%,0%);fill-opacity:1;" d="M 29.828125 27.085938 C 29.136719 27.460938 29.144531 28.804688 29.847656 29.171875 C 30.355469 29.441406 31.144531 29.285156 31.4375 28.847656 C 31.730469 28.429688 31.464844 28.386719 31.074219 28.777344 C 30.339844 29.519531 29.222656 28.597656 29.714844 27.652344 C 29.96875 27.15625 30.789062 27.078125 31.136719 27.515625 C 31.292969 27.714844 31.578125 27.8125 31.578125 27.664062 C 31.578125 27.523438 31.292969 27.199219 31.058594 27.078125 C 30.738281 26.914062 30.132812 26.914062 29.828125 27.085938 Z M 29.828125 27.085938 "/>
<path style=" stroke:none;fill-rule:nonzero;fill:rgb(0%,0%,0%);fill-opacity:1;" d="M 33.21875 26.992188 C 33.21875 27.015625 33.394531 27.347656 33.609375 27.722656 C 33.929688 28.289062 34 28.484375 34 28.847656 C 34 29.242188 34.023438 29.300781 34.171875 29.300781 C 34.320312 29.300781 34.34375 29.242188 34.34375 28.867188 C 34.34375 28.449219 34.414062 28.289062 35.054688 27.226562 C 35.226562 26.949219 35.226562 26.949219 35.054688 26.949219 C 34.933594 26.949219 34.785156 27.113281 34.550781 27.503906 C 34.371094 27.820312 34.199219 28.054688 34.164062 28.027344 C 34.128906 28.011719 33.964844 27.757812 33.808594 27.472656 C 33.625 27.140625 33.472656 26.949219 33.375 26.949219 C 33.289062 26.949219 33.21875 26.964844 33.21875 26.992188 Z M 33.21875 26.992188 "/>
</g>
</svg>
